<?xml version="1.0" standalone="no"?><!DOCTYPE svg PUBLIC "-//W3C//DTD SVG 1.1//EN" "http://www.w3.org/Graphics/SVG/1.1/DTD/svg11.dtd"><svg t="1534734190587" class="icon" style="" viewBox="0 0 1024 1024" version="1.1" xmlns="http://www.w3.org/2000/svg" p-id="5002" xmlns:xlink="http://www.w3.org/1999/xlink" width="200" height="200"><defs><style type="text/css"></style></defs><path d="M68.442949 426.915452h51.178675v221.774261h34.119117v-221.774261h716.501458v221.774261h34.119117v-221.774261h51.178676c10.235735 0 17.059559-6.823823 17.059558-17.059559v-63.120366c0-5.117868-1.705956-10.235735-6.823823-13.647647l-443.548522-329.249479c-6.823823-5.117868-13.647647-5.117868-20.47147 0l-431.60683 320.7197h-1.705956v1.705956l-10.235735 6.823823c-5.117868 3.411912-6.823823 8.529779-6.823824 13.647647v63.120366c0 10.235735 6.840883 17.059559 17.059559 17.059559z m443.548521-388.957934l426.488963 317.307788v37.531029h-852.977926v-34.119117h682.382341v-34.119117h-641.4394l385.546022-286.600583z" p-id="5003"></path><path d="M477.872353 153.962516h68.238234v34.119117h-68.238234zM426.693678 222.20075h170.595585v34.119117h-170.595585zM187.859858 461.034569h34.119117v34.119117h-34.119117zM256.098092 461.034569h34.119117v34.119117h-34.119117zM324.336327 461.034569h34.119117v34.119117h-34.119117zM392.574561 461.034569h34.119117v34.119117h-34.119117zM460.812795 461.034569h34.119117v34.119117h-34.119117zM529.051029 461.034569h34.119117v34.119117h-34.119117zM597.289263 461.034569h34.119117v34.119117h-34.119117zM665.527497 461.034569h34.119117v34.119117h-34.119117zM733.765731 461.034569h34.119117v34.119117h-34.119117zM802.003965 461.034569h34.119117v34.119117h-34.119117zM955.539992 989.880883v-214.950437l22.177426 22.177426 23.883382-23.883382-51.178676-51.178676c-6.823823-6.823823-17.059559-6.823823-23.883382 0l-51.178675 51.178676 23.883382 23.883382 22.177426-22.177426v214.950437h-170.595586v-385.546023l22.177427 22.177427 23.883381-23.883382-51.178675-51.178676c-6.823823-6.823823-17.059559-6.823823-23.883382 0l-51.178676 51.178676 23.883382 23.883382 22.177426-22.177427v385.546023h-409.429404v-385.546023l22.177426 22.177427 23.883382-23.883382-51.178676-51.178676c-6.823823-6.823823-17.059559-6.823823-23.883381 0l-51.178676 51.178676 23.883382 23.883382 22.177426-22.177427v385.546023h-170.595585v-214.950437l22.177426 22.177426 23.883382-23.883382-51.178676-51.178676c-6.823823-6.823823-17.059559-6.823823-23.883382 0l-51.178675 51.178676 23.883382 23.883382 22.177426-22.177426v214.950437h-68.238234v34.119117h1023.573511v-34.119117h-68.238234z" p-id="5004"></path><path d="M494.931912 614.570596h34.119117c29.001249 0 51.178676 22.177426 51.178675 51.178675h34.119117c0-47.766764-37.531029-85.297793-85.297792-85.297792v-34.119117h-34.119117v34.119117c-47.766764 0-85.297793 37.531029-85.297793 85.297792s37.531029 85.297793 85.297793 85.297793h34.119117c29.001249 0 51.178676 22.177426 51.178675 51.178675s-22.177426 51.178676-51.178675 51.178676h-34.119117c-29.001249 0-51.178676-22.177426-51.178676-51.178676h-34.119117c0 47.766764 37.531029 85.297793 85.297793 85.297793v34.119117h34.119117v-34.119117c47.766764 0 85.297793-37.531029 85.297792-85.297793s-37.531029-85.297793-85.297792-85.297792h-34.119117c-29.001249 0-51.178676-22.177426-51.178676-51.178676s22.177426-51.178676 51.178676-51.178675z" p-id="5005"></path></svg>