<?xml version="1.0" standalone="no"?><!DOCTYPE svg PUBLIC "-//W3C//DTD SVG 1.1//EN" "http://www.w3.org/Graphics/SVG/1.1/DTD/svg11.dtd"><svg t="1534931497323" class="icon" style="" viewBox="0 0 1024 1024" version="1.1" xmlns="http://www.w3.org/2000/svg" p-id="14022" xmlns:xlink="http://www.w3.org/1999/xlink" width="200" height="200"><defs><style type="text/css"></style></defs><path d="M508.792447 63.479777c139.002844 0 251.695462 112.090914 251.695462 250.426563 0 79.075986-69.846788 212.19175-136.738267 311.666322 25.319665 2.464121 49.875944 5.750981 73.284073 9.81146l0 39.246863c-30.743188-5.511527-63.98529-9.715269-98.960873-12.325723-18.8493 25.956162-36.705993 48.142463-51.708686 64.334237 84.314291 5.945409 147.640572 30.886451 147.640572 60.708664 0 34.269501-83.526345 62.015426-186.56407 62.015426-102.985536 0-186.485275-27.744901-186.485275-62.015426 0-30.16195 64.573691-55.246255 150.136416-60.854996-14.901385-16.143679-32.630165-38.135552-51.352575-63.850214-172.705434 13.630439-301.215296 65.204048-301.215296 126.734426 0 71.972195 175.838797 130.311905 392.612912 130.311905 216.747509 0 392.585283-58.33971 392.585283-130.311905 0-40.069601-54.613852-75.933413-140.405797-99.860359l0-40.116673c119.008464 30.401404 197.159382 81.782631 197.159382 139.977032 0 93.432972-201.234187 169.174004-449.337845 169.174004-248.15687 0-449.366498-75.742055-449.366498-169.174004 0-78.158081 140.966569-143.940296 332.445578-163.323762-67.043952-99.521644-137.120984-232.975099-137.120984-312.148299C257.093914 175.570691 369.812115 63.479777 508.792447 63.479777L508.792447 63.479777zM533.067316 740.125651c-10.648524 10.05296-19.079544 15.660678-24.27487 15.660678-5.197372 0-13.653975-5.65479-24.403806-15.805988-79.0678 3.335978-139.846048 23.25054-139.846048 47.368844 0 26.391067 72.953545 47.804772 162.898067 47.804772 90.022293 0 163.002444-21.413706 163.002444-47.804772C670.443104 763.518431 610.88566 743.749178 533.067316 740.125651L533.067316 740.125651zM506.066359 214.480886c-68.87874 0-124.741026 52.975539-124.741026 118.372991 0 65.348334 55.863309 118.324896 124.741026 118.324896 68.877717 0 124.738979-52.976562 124.738979-118.324896C630.805338 267.456425 574.944076 214.480886 506.066359 214.480886z" p-id="14023" data-spm-anchor-id="a313x.7781069.0.i35" fill="#3096f8" class="selected"></path></svg>