<?xml version="1.0" standalone="no"?><!DOCTYPE svg PUBLIC "-//W3C//DTD SVG 1.1//EN" "http://www.w3.org/Graphics/SVG/1.1/DTD/svg11.dtd"><svg t="1534931161296" class="icon" style="" viewBox="0 0 1024 1024" version="1.1" xmlns="http://www.w3.org/2000/svg" p-id="10053" xmlns:xlink="http://www.w3.org/1999/xlink" width="200" height="200"><defs><style type="text/css"></style></defs><path d="M512.48 33.008c-263.024 0-478.24 215.2-478.24 478.24 0 263.024 215.2 478.224 478.24 478.224s478.24-215.2 478.24-478.224c0-263.04-215.2-478.24-478.24-478.24m11.952 143.472c182.336 0 182.336 137.488 182.336 215.2 0 77.712-71.728 221.184-182.336 224.16-107.6 0-182.336-143.456-182.336-224.16 0.016-77.712 0.016-215.2 182.336-215.2m-11.952 786.08c-137.488 0-263.024-62.768-346.72-161.392 11.952-29.888 26.896-62.784 47.824-80.704 44.832-35.872 179.328-95.664 179.328-95.664l83.696 161.408 14.944-38.864-23.92-47.808 47.824-47.824 47.824 47.824-20.928 50.816 11.952 38.848 86.672-158.4s134.496 59.776 179.344 95.648c20.928 14.96 35.856 41.856 44.832 65.76C784.464 896.816 655.952 962.56 512.48 962.56m0 0z" p-id="10054" data-spm-anchor-id="a313x.7781069.0.i26" fill="#3096f8" class="selected"></path></svg>