<?xml version="1.0" standalone="no"?><!DOCTYPE svg PUBLIC "-//W3C//DTD SVG 1.1//EN" "http://www.w3.org/Graphics/SVG/1.1/DTD/svg11.dtd"><svg t="1534931080671" class="icon" style="" viewBox="0 0 1024 1024" version="1.1" xmlns="http://www.w3.org/2000/svg" p-id="9277" xmlns:xlink="http://www.w3.org/1999/xlink" width="200" height="200"><defs><style type="text/css"></style></defs><path d="M905.833846 148.032446h-787.657692c-61.600602 0-112.001094 50.400492-112.001094 112.001093v503.942922c0 61.600602 50.400492 112.001094 112.001094 112.001093h787.657692c61.600602 0 112.001094-50.400492 112.001094-112.001093V260.033539c0-61.600602-50.400492-112.001094-112.001094-112.001093z m-426.497165 561.15548c-1.06001 6.357062-2.651026 11.120109-4.767047 14.302139-1.417014 2.116021-5.563054 4.237041-12.451121 6.357062-6.888067 2.116021-15.448151 4.05804-25.686251 5.823057-10.2431 1.770017-21.54121 3.446034-33.901331 5.032049a860.446403 860.446403 0 0 1-37.346365 3.977039 1567.73631 1567.73631 0 0 1-36.282354 2.646026c-11.650114 0.705007-21.888214 1.06101-30.7183 1.06101-8.831086 0-18.982185-0.352003-30.459298-1.06101a1524.72789 1524.72789 0 0 1-35.752349-2.646026 2190.642393 2190.642393 0 0 1-36.551357-3.446033c-12.002117-1.234012-23.041225-2.647026-33.100323-4.237042-10.064098-1.586015-18.543181-3.176031-25.426248-4.767046-6.888067-1.591016-11.212109-3.09003-12.976127-4.501044-2.825028-2.473024-5.12305-9.886097-6.888067-22.246218-1.770017-12.358121-1.234012-28.250276 1.591015-47.672465 1.765017-11.29811 6.266061-19.772193 13.506132-25.426248 7.241071-5.649055 15.801154-10.2381 25.692251-13.766135a336.558287 336.558287 0 0 1 30.453298-9.27009c10.417102-2.651026 19.687192-6.623065 27.809271-11.920117 6.357062-4.237041 11.211109-8.122079 14.566142-11.656114 3.355033-3.528034 5.828057-7.061069 7.419073-10.590103a26.863262 26.863262 0 0 0 2.382023-11.124109c0-3.886038-0.179002-8.301081-0.531005-13.242129-0.703007-7.061069-3.176031-12.623123-7.414072-16.687163-4.236041-4.05804-8.830086-8.031078-13.776135-11.915116-2.473024-2.121021-4.675046-5.12505-6.618065-9.004088a110.491079 110.491079 0 0 1-5.032049-11.656114c-1.413014-4.236041-2.824028-9.003088-4.237041-14.30014-2.116021-0.710007-4.237041-1.765017-6.357062-3.177031-1.765017-1.412014-3.616035-3.533035-5.563055-6.357062-1.937019-2.825028-3.793037-6.709066-5.558054-11.650114-1.765017-4.946048-2.473024-9.626094-2.121021-14.041137 0.357003-4.410043 1.239012-8.031078 2.652026-10.855106a32.78932 32.78932 0 0 1 5.827057-9.535093c-0.357003-11.29811 0.174002-22.775222 1.587016-34.430336 1.412014-9.887097 3.619035-20.216197 6.623064-30.984303 3.002029-10.769105 7.678075-20.747203 14.036138-29.928292 5.649055-8.474083 12.006117-15.35815 19.068186-20.659202 7.062069-5.294052 14.30214-9.443092 21.714212-12.446121 7.419072-3.003029 14.832145-5.033049 22.246217-6.09306 7.414072-1.05501 14.479141-1.586015 21.190207-1.586015 18.007176 0 34.073333 3.707036 48.196471 11.120108 14.129138 7.417072 24.54524 15.36215 31.254305 23.835233 7.770076 9.540093 13.507132 20.216197 17.214168 32.045313 3.711036 11.834116 6.444063 22.867223 8.21308 33.110323a205.279005 205.279005 0 0 1 2.116021 36.016352c1.763017 1.413014 3.355033 3.355033 4.767046 5.828057 1.06001 2.116021 2.03402 4.854047 2.916029 8.20808 0.882009 3.355033 0.969009 7.505073 0.265002 12.446122-0.708007 6.359062-2.121021 11.477112-4.236041 15.36215-2.121021 3.886038-4.242041 6.889067-6.359062 9.009088-2.473024 2.468024-5.292052 4.05804-8.474083 4.763046-1.413014 5.297052-2.824028 10.064098-4.237041 14.30014-1.412014 3.886038-3.176031 7.770076-5.297052 11.656114-2.120021 3.880038-4.415043 6.709066-6.888067 8.474083-2.825028 2.473024-5.384053 4.589045-7.678075 6.352062-2.300022 1.770017-4.329042 3.620035-6.09306 5.568054-1.763017 1.937019-3.263032 4.14604-4.502044 6.618065-1.239012 2.473024-2.208022 5.476053-2.916028 9.004088a73.996723 73.996723 0 0 0-0.791008 14.036137c0.178002 4.768047 1.320013 9.448092 3.442034 14.036137 2.121021 4.589045 5.563054 9.004088 10.329101 13.242129 4.767047 4.236041 11.386111 7.943078 19.864194 11.124109 7.414072 3.177031 15.622153 5.914058 24.62624 8.20908 9.004088 2.294022 17.656172 5.032049 25.956254 8.20808 8.296081 3.181031 15.713153 7.240071 22.245217 12.185119 6.531064 4.941048 11.212109 11.29811 14.036137 19.068186 1.413014 4.941048 2.559025 10.946107 3.442034 18.008176 0.882009 7.062069 1.326013 14.210139 1.326013 21.450209s-0.531005 14.037137-1.587016 20.3952z m403.725943-39.184383H597.918839c-12.846125 0-23.258227-10.613104-23.258227-23.706232 0-13.096128 10.412102-23.711232 23.258227-23.711231h285.143785c12.846125 0 23.258227 10.615104 23.258227 23.711231 0 13.093128-10.417102 23.706232-23.258227 23.706232z m0-142.022387H597.918839c-12.846125 0-23.258227-10.608104-23.258227-23.704231 0-13.092128 10.412102-23.706232 23.258227-23.706232h285.143785c12.846125 0 23.258227 10.613104 23.258227 23.706232 0 13.096128-10.417102 23.704231-23.258227 23.704231z m0-142.769394H597.918839c-12.846125 0-23.258227-10.613104-23.258227-23.711232 0-13.091128 10.412102-23.706232 23.258227-23.706231h285.143785c12.846125 0 23.258227 10.615104 23.258227 23.706231 0 13.098128-10.417102 23.711232-23.258227 23.711232z" p-id="9278" data-spm-anchor-id="a313x.7781069.0.i23" fill="#3096f8" class="selected"></path></svg>