<?xml version="1.0" standalone="no"?><!DOCTYPE svg PUBLIC "-//W3C//DTD SVG 1.1//EN" "http://www.w3.org/Graphics/SVG/1.1/DTD/svg11.dtd"><svg t="1534931540766" class="icon" style="" viewBox="0 0 1024 1024" version="1.1" xmlns="http://www.w3.org/2000/svg" p-id="14756" xmlns:xlink="http://www.w3.org/1999/xlink" width="200" height="200"><defs><style type="text/css"></style></defs><path d="M512 42.666667c260.266667 0 469.333333 209.066667 469.333333 469.333333s-209.066667 469.333333-469.333333 469.333333S42.666667 772.266667 42.666667 512 251.733333 42.666667 512 42.666667z m115.2 221.866666L554.666667 401.066667c-21.333333 38.4-29.866667 64-38.4 72.533333-12.8-29.866667-51.2-102.4-110.933334-213.333333H332.8l132.266667 221.866666H354.133333v51.2h123.733334v68.266667H354.133333v51.2h123.733334v98.133333h64v-98.133333h119.466666v-51.2h-119.466666v-68.266667h119.466666v-51.2h-102.4l132.266667-221.866666h-64z" fill="#3096f8" p-id="14757" data-spm-anchor-id="a313x.7781069.0.i38" class="selected"></path></svg>