<?xml version="1.0" standalone="no"?><!DOCTYPE svg PUBLIC "-//W3C//DTD SVG 1.1//EN" "http://www.w3.org/Graphics/SVG/1.1/DTD/svg11.dtd"><svg t="1534931410648" class="icon" style="" viewBox="0 0 1031 1024" version="1.1" xmlns="http://www.w3.org/2000/svg" p-id="11054" xmlns:xlink="http://www.w3.org/1999/xlink" width="201.3671875" height="200"><defs><style type="text/css"></style></defs><path d="M513.945036 0C230.112989 0 0.014327 228.384743 0.014327 510.094796s230.103762 510.094796 513.930709 510.094796 513.930709-228.384743 513.930709-510.094796S797.777083 0 513.945036 0z m0 991.042775c-267.177452 0-484.564551-215.764998-484.564551-480.947979S246.767584 29.151918 513.945036 29.151918s484.564551 215.764998 484.564551 480.947979-217.387099 480.942878-484.564551 480.942878z" p-id="11055" fill="#3096f8"></path><path d="M562.511161 505.804899c53.417127-28.014406 89.888905-83.971805 89.888905-148.488595 0-92.577105-75.055348-167.601847-167.601847-167.601847-92.577105 0-167.601847 75.024743-167.601847 167.601847 0 62.767165 34.507913 117.434024 85.573503 146.152361-124.758985 26.417809-216.739279 119.499908-216.739279 254.639322-0.030606 48.59163 143.688603 72.37225 288.433103 72.372249 146.733869 0 294.528735-24.443743 294.528735-72.372249 0-131.40552-86.971163-223.054252-206.481273-252.303088z m-216.167972-148.488595c0-76.350989 62.104041-138.45503 138.45503-138.455031 76.345888 0 138.45503 62.104041 138.455031 138.455031 0 76.345888-62.109142 138.45503-138.455031 138.45503-76.350989 0-138.45503-62.104041-138.45503-138.45503z m156.905159 304.700025l-25.734282 25.703677-25.734283-25.703677 25.734283-94.336932 25.734282 94.336932z m-28.784649 139.317091c-165.051373 0-249.415951-28.550006-259.286286-44.352743 0.571306-131.089262 99.682725-224.105048 243.641678-231.521826l-39.60376 145.203585 58.298735 58.298734 58.298734-58.298734-39.60376-145.203585c143.826329 7.411677 242.876536 100.233627 243.641678 231.129053-10.972139 15.562992-100.136709 44.745515-265.387019 44.745516z" p-id="11056" data-spm-anchor-id="a313x.7781069.0.i32" fill="#3096f8" class="selected"></path><path d="M706.215067 500.066332c29.80994-26.698362 48.555924-65.450263 48.555924-108.609384 0-68.352703-47.066447-125.687358-110.547744-141.433984a181.874299 181.874299 0 0 1 16.159803 36.793138c38.609075 19.021435 65.241124 58.773122 65.241124 104.645947a116.663781 116.663781 0 0 1-38.85392 86.884447l-33.120455 29.646709 40.409709 18.547047c68.566942 31.503455 114.031692 98.611526 118.561334 173.279202h29.238634c-4.606156-88.843211-58.900646-164.536177-135.644409-199.753122z" p-id="11057" fill="#3096f8"></path></svg>