<?xml version="1.0" standalone="no"?><!DOCTYPE svg PUBLIC "-//W3C//DTD SVG 1.1//EN" "http://www.w3.org/Graphics/SVG/1.1/DTD/svg11.dtd"><svg t="1534916978059" class="icon" style="" viewBox="0 0 1024 1024" version="1.1" xmlns="http://www.w3.org/2000/svg" p-id="4634" xmlns:xlink="http://www.w3.org/1999/xlink" width="200" height="200"><defs><style type="text/css"></style></defs><path d="M511.91395 0C236.036303 0 12.30521 223.731092 12.30521 499.608739s223.731092 499.78084 499.60874 499.780841 499.78084-223.731092 499.78084-499.780841-223.731092-499.608739-499.78084-499.608739z m0 941.219496c-243.866891 0-441.438655-197.743866-441.438656-441.438656s197.743866-441.438655 441.438656-441.438655S953.524706 255.91395 953.524706 499.608739 755.78084 941.219496 511.91395 941.219496z" fill="#3096f8" p-id="4635" data-spm-anchor-id="a313x.7781069.0.i18" class="selected"></path><path d="M802.76437 443.848067L542.375798 728.847059c-7.744538 8.777143-18.931092 13.940168-30.80605 13.940168-11.874958 0-23.061513-5.163025-30.806051-13.940168L220.203025 443.848067c-12.735462-13.423866-16.693782-33.043361-10.153949-50.253445 6.539832-17.210084 22.373109-29.429244 40.787899-30.978151h520.777143c18.586891 1.548908 34.420168 13.595966 40.96 30.978151 6.884034 17.210084 2.925714 36.82958-9.809748 50.253445z" fill="#3096f8" p-id="4636" data-spm-anchor-id="a313x.7781069.0.i19" class=""></path></svg>